{"title":"Maze.Runner-Scorch.Trials.2015.HC.HDRiP.XViD.ReLeNTLesS","uid":12677006,"size":1895022259,"categoryP":"video","categoryS":"movies","magnet":"?xt=urn:btih:77ffe86df261a92eacde91f04d4b155ce1d1999f&amp;dn=Maze.Runner-Scorch.Trials.2015.HC.HDRiP.XViD.ReLeNTLesS&amp;tr=udp%3A%2F%2Ftracker.leechers-paradise.org%3A6969&amp;tr=udp%3A%2F%2Fzer0day.ch%3A1337&amp;tr=udp%3A%2F%2Fopen.demonii.com%3A1337&amp;tr=udp%3A%2F%2Ftracker.coppersurfer.tk%3A6969&amp;tr=udp%3A%2F%2Fexodus.desync.com%3A6969","seeders":0,"leechers":0,"uploader":"TvTeam","files":4,"time":1446514291,"description":"------------------------------------------------------------------------\r\n\r  https://www.torrenting.com\r\n\r\nSign up is OPEN - for time being. Come and have fun.\r\n\r\n------------------------------------------------------------------------P0STER\r\n[img]http://i.imgur.com/GEQHhmC.png[/img]\r\n\r\niMDB: http://www.imdb.com/title/tt4046784/\r\n\r\nGeneral\r\nComplete name               : Maze.Runner-Scorch.Trials.2015.HC.HDRiP.XViD.ReLeNTLesS.avi\r\nFormat                      : AVI\r\nFormat/Info                 : Audio Video Interleave\r\nFile size                   : 1.75 GiB\r\nDuration                    : 2h 11mn\r\nOverall bit rate            : 1 904 Kbps\r\n\r\nVideo\r\nID                          : 0\r\nFormat                      : MPEG-4 Visual\r\nFormat profile              : Advanced   \r\nFormat settings, BVOP       : 1\r\nFormat settings, QPel       : No\r\nFormat settings, GMC        : No warppoints\r\nFormat settings, Matrix     : Default (H.263)\r\nMuxing mode                 : Packed bitstream\r\nCodec ID                    : XVID\r\nCodec ID/Hint               : XviD\r\nDuration                    : 2h 11mn\r\nBit rate                    : 1 704 Kbps\r\nWidth                       : 720 pixels\r\nHeight                      : 400 pixels\r\nDisplay aspect ratio        : 16:9\r\nFrame rate                  : 27.180 fps\r\nColor space                 : YUV\r\nChroma subsampling          : 4:2:0\r\nBit depth                   : 8 bits\r\nScan type                   : Progressive\r\nCompression mode            : Lossy\r\nBits/(Pixel*Frame)          : 0.218\r\nStream size                 : 1.57 GiB (89%)\r\nWriting library             : XviD 1.2.1 (UTC 2008-12-04)\r\n\r\nAudio\r\nID                          : 1\r\nFormat                      : AC-3\r\nFormat/Info                 : Audio Coding 3\r\nMode extension              : CM (complete main)\r\nFormat settings, Endianness : Big\r\nCodec ID                    : 2000\r\nDuration                    : 2h 11mn\r\nBit rate mode               : Constant\r\nBit rate                    : 192 Kbps\r\nChannel(s)                  : 2 channels\r\nChannel positions           : Front: L R\r\nSampling rate               : 48.0 KHz\r\nCompression mode            : Lossy\r\nStream size                 : 181 MiB (10%)\r\nAlignment                   : Aligned on interleaves\r\nInterleave, duration        : 64 ms (1.74 video frames)\r\nInterleave, preload duratio : 192 ms\r\nTitle                       : Maze.Runner-Scorch.Trials.2015.ReLeNTLesS.auido.2.0.English\r\nSample Included             : Yes\r\nSource                      : Olleh Thanks\r\n\r\nPL0T\r\nAfter having escaped the Maze, the Gladers now face a new set of challenges on the open roads of a desolate landscape filled with unimaginable obstacles.\r\n\r\nCAST\r\nDirector: Wes Ball\r\nWriters: T.S. Nowlin (screenplay), James Dashner (novel)\r\nStars: Dylan O'Brien, Kaya Scodelario, Thomas Brodie-Sangster\r\n\r\nN0TE\r\nFrame Rate gets a bit jumpy now and then, Resized then Degrained and sharpend Just to try and redefine those edges. will do for now till better source comes.\r\n\r\nSCREENS\r\n[img]http://i.imgur.com/qLy9Aoa.png[/img]\r\n[img]http://i.imgur.com/HQrC6OK.png[/img]\r\n[img]http://i.imgur.com/v8UCwW0.png[/img]\r\n[img]http://i.imgur.com/vlvORWE.png[/img]\r\n[img]http://i.imgur.com/4tB2mqi.png[/img]\r\n[img]http://i.imgur.com/x1uTvNN.png[/img]\r\n[img]http://i.imgur.com/tTmtXHL.png[/img]\r\n[img]http://i.imgur.com/3sknZZX.png[/img]\r\n\r\nTRAiLER\r\n\r\nGREETZ\r\n\r\n\r\nHIVE-CM8, Blackjesus, M0RPH, M00SE, MiLLENiUM,\r\n\r\nMANiX, TiTAN, Anonymous, TuX, \r\n\r\nACAB, KingStoner, FooKas, 4PlayHD, \r\n\r\nSoZE, GodFather, Cld.... \r\n\r\nKeep up the good work guyz","torrent":{"xt":"urn:btih:77ffe86df261a92eacde91f04d4b155ce1d1999f","amp;dn":"Maze.Runner-Scorch.Trials.2015.HC.HDRiP.XViD.ReLeNTLesS","amp;tr":["udp%3A%2F%2Ftracker.leechers-paradise.org%3A6969","udp%3A%2F%2Fzer0day.ch%3A1337","udp%3A%2F%2Fopen.demonii.com%3A1337","udp%3A%2F%2Ftracker.coppersurfer.tk%3A6969","udp%3A%2F%2Fexodus.desync.com%3A6969"],"infoHash":"77ffe86df261a92eacde91f04d4b155ce1d1999f","infoHashBuffer":{"type":"Buffer","data":[119,255,232,109,242,97,169,46,172,222,145,240,77,75,21,92,225,209,153,159]},"announce":[],"urlList":[]}}